<?xml version="1.0" standalone="no"?>
<!DOCTYPE svg PUBLIC "-//W3C//DTD SVG 20010904//EN"
 "http://www.w3.org/TR/2001/REC-SVG-20010904/DTD/svg10.dtd">
<svg version="1.0" xmlns="http://www.w3.org/2000/svg"
 width="400.000000pt" height="400.000000pt" viewBox="0 0 400.000000 400.000000"
 preserveAspectRatio="xMidYMid meet">

<g transform="translate(0.000000,400.000000) scale(0.100000,-0.100000)"
fill="#000000" stroke="none">
<path d="M2384 3297 c-35 -32 -36 -36 -104 -327 -72 -313 -94 -381 -155 -476
-145 -226 -395 -364 -661 -364 -129 0 -152 5 -469 101 -145 44 -278 79 -301
79 -32 0 -49 -7 -72 -28 -75 -70 -44 -178 60 -211 18 -5 80 -24 138 -41 112
-34 133 -45 104 -53 -11 -3 -84 -25 -164 -47 -170 -49 -175 -51 -200 -93 -25
-40 -25 -83 -1 -123 17 -28 73 -64 99 -64 6 0 136 36 289 79 330 94 388 106
503 98 115 -7 197 -29 305 -82 154 -75 273 -192 350 -345 48 -96 57 -128 124
-440 60 -281 61 -285 96 -318 29 -26 43 -32 81 -32 39 0 51 5 80 34 46 46 45
73 -16 357 -28 127 -48 234 -46 237 3 2 90 -73 195 -167 104 -94 201 -175 216
-181 72 -27 155 34 155 114 0 28 -7 52 -20 69 -11 14 -107 104 -214 201 -256
232 -297 278 -356 401 -64 133 -83 213 -83 350 0 120 17 207 59 307 50 119
106 188 343 420 202 197 230 228 237 263 9 52 -18 103 -69 129 -69 33 -94 20
-239 -121 -72 -71 -128 -119 -128 -110 0 8 14 73 30 142 17 69 30 140 30 157
0 64 -59 118 -129 118 -21 0 -43 -10 -67 -33z m-300 -1443 c8 -41 8 -41 -64
14 -25 19 -69 48 -98 64 l-53 30 73 42 c40 23 84 49 98 59 l25 17 6 -95 c4
-52 10 -111 13 -131z"/>
</g>
</svg>
